<svg viewBox="-42.68 0 223.18 223.18" xmlns="http://www.w3.org/2000/svg" fill="#000000"><g id="SVGRepo_bgCarrier" stroke-width="0"></g><g id="SVGRepo_tracerCarrier" stroke-linecap="round" stroke-linejoin="round"></g><g id="SVGRepo_iconCarrier"><defs><style>.a{fill:#bdbdbd;}.b{fill:#211715;}.c{fill:#ffffff;}.d{fill:#ffffff;}</style></defs><path class="a" d="M127.525,183.257c.2,8.028-1.593,14.306-5.646,19.8s-10.894,9.036-16.742,11.838c-7.769,3.722-27.225,5.885-36.611,5.885s-28.949-2.555-36.719-6.277c-5.847-2.8-12.582-5.953-16.635-11.446s-5.845-11.771-5.645-19.8"></path><path class="b" d="M125.125,183.257c.112,5.491-.721,10.949-3.479,15.771-2.778,4.858-7.093,8.139-11.911,10.829-1.245.695-2.513,1.349-3.79,1.983q-.841.415-1.687.822l-.531.253c-.136.063-.273.125-.411.185q.326-.135-.078.031a42.76,42.76,0,0,1-5.578,1.734,114.061,114.061,0,0,1-14.289,2.5c-4.515.532-9.063.925-13.611,1a100.089,100.089,0,0,1-12.514-.713,138.621,138.621,0,0,1-14.569-2.326A51.808,51.808,0,0,1,31,211.462c-5.356-2.594-10.975-5.489-14.414-10.54-3.592-5.276-4.792-11.36-4.663-17.665.063-3.09-4.737-3.089-4.8,0a35.025,35.025,0,0,0,3.952,17.872c2.946,5.306,7.465,9.092,12.71,12.017A60.544,60.544,0,0,0,37.071,218.9a116.638,116.638,0,0,0,15.373,2.965,132.975,132.975,0,0,0,14.6,1.3,107.63,107.63,0,0,0,13.189-.657,144.016,144.016,0,0,0,16.207-2.431,52.454,52.454,0,0,0,12.955-4.6c6.084-3.094,11.867-6.913,15.624-12.749,3.737-5.8,5.045-12.64,4.906-19.463-.063-3.084-4.864-3.095-4.8,0Z"></path><path class="c" d="M3.893,33.5h0A31.241,31.241,0,0,1,35.134,2.407h67.424c17.215,0,30.13,13.952,31.247,31.13,2.859,43.97,1.265,107.723-.021,134.232-.389,8.022-1.762,14.306-6.244,19.8s-12.05,9.036-18.519,11.838c-8.593,3.722-30.114,5.885-40.5,5.885s-32.021-2.555-40.614-6.277c-6.469-2.8-13.918-5.953-18.4-11.446s-6.05-11.77-6.245-19.8C2.611,140.742,1.436,76.038,3.893,33.5Z"></path><path class="b" d="M6.293,33.5A28.827,28.827,0,0,1,35.136,4.807c1.587-.008,3.175,0,4.762,0H92.386c5.44,0,11.344-.529,16.673.748,9.923,2.378,17.642,10.2,20.755,19.81,1.674,5.17,1.764,10.555,2.04,15.934q.451,8.793.69,17.6c.7,24.324.565,48.675.032,73q-.318,14.5-.886,28.987a100.769,100.769,0,0,1-.971,13.477,24.129,24.129,0,0,1-7.786,14.483,39.991,39.991,0,0,1-7.735,5.033c-1.284.672-2.589,1.3-3.9,1.909q-1.049.483-2.106.948c-.345.152-.691.3-1.035.454a2.243,2.243,0,0,1-.48.2,70.281,70.281,0,0,1-13.65,3.289,145.537,145.537,0,0,1-29.15,2.134,143.783,143.783,0,0,1-31.051-4.35,61.654,61.654,0,0,1-13.947-5.843c-5.194-2.831-9.555-6.61-11.906-12.157C5.911,175.6,5.726,170.35,5.605,165.162q-.144-6.183-.263-12.368-.3-15.561-.44-31.125c-.212-24.08-.184-48.179.665-72.247q.28-7.965.726-15.922c.178-3.086-4.623-3.076-4.8,0C.1,57.717-.053,82.009.012,106.26q.083,30.651.85,61.3c.156,6.192,1.1,12.456,4.262,17.884,3.328,5.721,8.617,9.522,14.451,12.416a70.689,70.689,0,0,0,14.4,5.594,144.118,144.118,0,0,0,16.406,2.875c5.263.669,10.565,1.174,15.87,1.327a123.908,123.908,0,0,0,13.771-.516c5.788-.477,11.573-1.167,17.293-2.18a59.707,59.707,0,0,0,13.6-3.779c5.83-2.547,11.753-5.4,16.4-9.846a28.546,28.546,0,0,0,8.1-16.076,115.166,115.166,0,0,0,1.077-14.377q.28-6.883.487-13.77c.734-23.9,1.027-47.833.707-71.748-.164-12.315-.494-24.631-1.183-36.929-.325-5.8-.767-11.441-2.987-16.877a35.621,35.621,0,0,0-9.241-13.286A32.618,32.618,0,0,0,110.009.85a41.126,41.126,0,0,0-9.2-.843H38.389c-2.131,0-4.273-.056-6.4.156A33.613,33.613,0,0,0,1.493,33.5C1.479,36.589,6.279,36.593,6.293,33.5Z"></path><rect class="d" x="18.926" y="37.474" width="97.88" height="91.831" rx="12.014"></rect><path class="b" d="M30.94,131.705h69.934c1.234,0,2.468,0,3.7,0a14.638,14.638,0,0,0,10.744-4.572,14.876,14.876,0,0,0,3.885-10.228c0-1.461,0-2.923,0-4.384V52.868c0-1.1.012-2.2,0-3.3a14.684,14.684,0,0,0-6.586-12.18c-3.989-2.637-8.511-2.312-13.024-2.312H38.023c-3.454,0-7.375-.407-10.754.472A14.534,14.534,0,0,0,16.647,47.774a29.969,29.969,0,0,0-.121,3.731v59.114c0,4.268-.449,8.806,1.37,12.786a14.551,14.551,0,0,0,13.044,8.3c3.089.044,3.091-4.756,0-4.8a9.743,9.743,0,0,1-9.536-8.237,24.16,24.16,0,0,1-.078-3.394V51.236a16.215,16.215,0,0,1,.3-4.143,9.711,9.711,0,0,1,9.324-7.219c.862-.01,1.726,0,2.588,0h70.728a9.828,9.828,0,0,1,10.139,10.089c.007,4.1,0,8.2,0,12.3V105.5c0,3.84.014,7.68,0,11.52a9.794,9.794,0,0,1-3.941,8.044,10.591,10.591,0,0,1-6.459,1.839H30.94C27.851,126.905,27.846,131.705,30.94,131.705Z"></path><path class="b" d="M48.407,55.23l1.134.092q-.3-.281-.61-.548c-.287-.244-.585-.475-.885-.7a12.063,12.063,0,0,0-2.012-1.277,10.475,10.475,0,0,0-4.86-1.144,8.131,8.131,0,0,0-6.845,4.124A9.966,9.966,0,0,0,33.8,64.2c1.2,3.064,3.463,5.112,6.065,7.012,1.2.878,2.411,1.751,3.652,2.572a16.34,16.34,0,0,0,4.113,2.284c2.9.826,5.954-1.789,8.178-3.36,2.65-1.872,5.5-3.716,7.217-6.552a10.669,10.669,0,0,0,1.27-8.314,8.347,8.347,0,0,0-6.236-6.02c-3.874-.752-7.425,1.177-10.136,3.786-2.23,2.145,1.167,5.537,3.394,3.394,1.441-1.386,3.337-2.787,5.466-2.552a3.542,3.542,0,0,1,2.924,2.824c1.152,4.468-3.578,7.368-6.638,9.512-.833.584-1.678,1.149-2.547,1.677a6.887,6.887,0,0,1-1.455.84c-.369.1-.383,0-.943-.319a62.214,62.214,0,0,1-5.46-3.644c-2.78-2.007-6.52-5.736-4.02-9.421,1.148-1.693,3.209-1.752,4.97-.978A11.759,11.759,0,0,1,46.441,59a3.506,3.506,0,0,0,4.389.375,2.468,2.468,0,0,0,.861-3.284A2.42,2.42,0,0,0,48.407,55.23Z"></path><path class="b" d="M49.618,57.3a1.055,1.055,0,0,1-1.48,0,13.03,13.03,0,0,0-2.948-2.251,7.739,7.739,0,0,0-4.852-.918A5.964,5.964,0,0,0,35.631,59.1a8.919,8.919,0,0,0,2.936,8.01,30.588,30.588,0,0,0,3.261,2.568,49.754,49.754,0,0,0,6.051,3.91,2.115,2.115,0,0,0,2,0,49.5,49.5,0,0,0,6.052-3.91,30.388,30.388,0,0,0,3.261-2.568,8.914,8.914,0,0,0,2.936-8.01,5.963,5.963,0,0,0-4.706-4.969,7.738,7.738,0,0,0-4.852.918A13.058,13.058,0,0,0,49.618,57.3Z"></path><path class="b" d="M77.854,82.371H99.4c3.089,0,3.094-4.8,0-4.8H77.854c-3.089,0-3.094,4.8,0,4.8Z"></path><path class="b" d="M77.854,96.847H99.4c3.089,0,3.094-4.8,0-4.8H77.854c-3.089,0-3.094,4.8,0,4.8Z"></path><path class="b" d="M77.854,111.323H99.4c3.089,0,3.094-4.8,0-4.8H77.854c-3.089,0-3.094,4.8,0,4.8Z"></path><path class="a" d="M68.559,149.841c-9.522,0-14.784,6.442-14.784,12.44,0,6.712,5.457,13,14.784,13,10.066,0,14.816-5.94,14.816-12.608C83.375,156.629,77.845,149.841,68.559,149.841Z"></path><path class="b" d="M68.559,147.441c-7.034.069-13.9,3.552-16.41,10.426-2.223,6.095.509,12.888,5.607,16.586,5.772,4.187,14.781,4.326,20.9.8a14.438,14.438,0,0,0,6.819-15.307c-1.589-7.831-9.362-12.422-16.917-12.5-3.09-.032-3.092,4.768,0,4.8,4.957.052,9.983,2.626,11.758,7.154a9.5,9.5,0,0,1-2.793,10.845c-3.84,3.16-10.794,3.547-15.3,1.31a10.97,10.97,0,0,1-4.977-4.765,9.817,9.817,0,0,1-.976-5.828c1.117-5.646,6.554-8.659,12.284-8.716C71.646,152.211,71.654,147.411,68.559,147.441Z"></path></g></svg>